<svg width="52" height="52" viewBox="0 0 52 52" fill="none" xmlns="http://www.w3.org/2000/svg">
<path d="M6.46943 28.2428C5.50007 26.7722 4.84705 25.1161 4.55183 23.3796L4.00166 20.1436L1.11719 17.2593L14.5894 3.78699L17.4738 6.67146L22.0213 7.79881C23.4384 8.15012 24.7844 8.74305 26.0001 9.55157M45.5307 28.2427L48.099 30.811C49.3395 32.0515 49.3395 34.0628 48.099 35.3034C46.8585 36.5438 44.8472 36.5438 43.6067 35.3034L40.4146 32.1112" stroke="#01A3C9" stroke-width="1.7" stroke-miterlimit="10" stroke-linejoin="round"/>
<path d="M40.4142 32.1111L45.8525 37.5494C47.0929 38.7899 47.0929 40.8011 45.8525 42.0417C44.612 43.2822 42.6007 43.2822 41.3601 42.0417L35.9219 36.6035" stroke="#01A3C9" stroke-width="1.7" stroke-miterlimit="10" stroke-linecap="round" stroke-linejoin="round"/>
<path d="M35.922 36.6033L39.1141 39.7954C40.3546 41.0359 40.3546 43.0472 39.1141 44.2878C37.8736 45.5282 35.8624 45.5282 34.6218 44.2878L31.4297 41.0956" stroke="#01A3C9" stroke-width="1.7" stroke-miterlimit="10" stroke-linecap="round" stroke-linejoin="round"/>
<path d="M31.4299 41.0956L33.1246 42.7903C34.3651 44.0308 34.3651 46.042 33.1246 47.2826C31.8841 48.5231 29.8729 48.5231 28.6323 47.2826L26 44.6503" stroke="#01A3C9" stroke-width="1.7" stroke-miterlimit="10" stroke-linejoin="round"/>
<path d="M7.10782 27.6189L3.91571 30.811C2.67523 32.0514 2.67523 34.0627 3.91571 35.3033C5.1562 36.5438 7.16744 36.5438 8.40803 35.3033L11.6001 32.1112C12.8406 30.8707 12.8406 28.8594 11.6001 27.6189C10.3596 26.3783 8.34831 26.3783 7.10782 27.6189Z" stroke="#273370" stroke-width="1.7" stroke-miterlimit="10" stroke-linecap="round" stroke-linejoin="round"/>
<path d="M11.6001 32.111L6.16181 37.5493C4.92132 38.7898 4.92132 40.801 6.16181 42.0416C7.40229 43.2821 9.41354 43.2821 10.6541 42.0416L16.0924 36.6033C17.3329 35.3629 17.3329 33.3516 16.0924 32.111C14.8519 30.8705 12.8407 30.8705 11.6001 32.111Z" stroke="#273370" stroke-width="1.7" stroke-miterlimit="10" stroke-linecap="round" stroke-linejoin="round"/>
<path d="M20.5845 41.0956L17.3924 44.2878C16.1518 45.5282 14.1406 45.5282 12.9001 44.2878C11.6596 43.0472 11.6596 41.0359 12.9001 39.7954L16.0922 36.6033C17.3328 35.3629 19.344 35.3629 20.5845 36.6033C21.825 37.8439 21.825 39.8552 20.5845 41.0956ZM20.5845 41.0956L18.8898 42.7903C17.6494 44.0308 17.6494 46.042 18.8898 47.2826C20.1303 48.5231 22.1416 48.5231 23.3822 47.2826L25.0768 45.588C26.3173 44.3475 26.3173 42.3362 25.0768 41.0956C23.8363 39.8552 21.825 39.8552 20.5845 41.0956Z" stroke="#273370" stroke-width="1.7" stroke-miterlimit="10" stroke-linecap="round" stroke-linejoin="round"/>
<path d="M26.2435 17.9397L24.4502 19.733C22.4671 21.7161 19.2519 21.7161 17.2687 19.733L16.3672 18.8316L24.0516 11.1471C25.686 9.51275 27.7352 8.35513 29.9787 7.79893L34.5262 6.67159L37.4106 3.78711L50.883 17.2593L47.9985 20.1438L47.4484 23.3797C47.1532 25.1161 46.5002 26.7721 45.531 28.2426L35.2282 17.9397C32.7471 15.4588 28.7246 15.4588 26.2435 17.9397Z" stroke="#273370" stroke-width="1.7" stroke-miterlimit="10" stroke-linejoin="round"/>
</svg>
