<svg width="52" height="52" viewBox="0 0 52 52" fill="none" xmlns="http://www.w3.org/2000/svg">
<path d="M9.41113 17.0507H22.1705V36.21H9.41113M9.41113 31.1319H22.1705" stroke="#01A3C9" stroke-width="1.7" stroke-miterlimit="2.6131" stroke-linecap="round" stroke-linejoin="round"/>
<path d="M35.4791 9.75V38.34M29.9166 44.2812H12.9123C10.4284 44.2812 8.39587 42.0278 8.39587 39.2734V9.75M35.2997 39.87L40.965 45.5353M31.6875 7.71875V2.13281M25.1875 2.13281V7.71875M18.6875 7.71875V2.13281M12.1875 2.13281V7.71875M5.6875 1.11719H38.1875V8.73438H5.6875V1.11719ZM44.9232 42.7577L38.1875 49.4934C36.3352 51.3458 33.3041 51.3458 31.4518 49.4935L31.4517 49.4934C29.5994 47.6411 29.5994 44.6101 31.4518 42.7577L38.1875 36.022C40.0398 34.1697 43.0708 34.1697 44.9231 36.022H44.9232C46.7755 37.8744 46.7755 40.9054 44.9232 42.7577Z" stroke="#273370" stroke-width="1.7" stroke-miterlimit="2.6131" stroke-linecap="round" stroke-linejoin="round"/>
</svg>
