<svg width="52" height="52" viewBox="0 0 52 52" fill="none" xmlns="http://www.w3.org/2000/svg">
<path d="M22.6824 32.6912C26.3778 32.6912 29.3735 29.6955 29.3735 26C29.3735 22.3046 26.3778 19.3089 22.6824 19.3089C18.9869 19.3089 15.9912 22.3046 15.9912 26C15.9912 29.6955 18.9869 32.6912 22.6824 32.6912Z" stroke="#273370" stroke-width="1.7" stroke-miterlimit="10" stroke-linecap="round" stroke-linejoin="round"/>
<path d="M22.6826 39.6289C30.2096 39.6289 36.3115 33.5271 36.3115 26C36.3115 18.473 30.2096 12.3712 22.6826 12.3712C15.1556 12.3712 9.05371 18.473 9.05371 26C9.05371 33.5271 15.1556 39.6289 22.6826 39.6289Z" stroke="#273370" stroke-width="1.7" stroke-miterlimit="10" stroke-linecap="round" stroke-linejoin="round"/>
<path d="M43.8827 29.9694C42.0196 39.9834 33.2362 47.565 22.6823 47.565C10.7721 47.565 1.11719 37.9101 1.11719 26C1.11719 14.09 10.7721 4.43506 22.6822 4.43506C32.9878 4.43506 41.605 11.664 43.7396 21.3276" stroke="#273370" stroke-width="1.7" stroke-miterlimit="10" stroke-linecap="round" stroke-linejoin="round"/>
<path d="M22.6826 25.6367H41.153M49.5154 29.7878H44.6535C44.444 29.7878 44.2372 29.7396 44.0493 29.6468C43.8614 29.5541 43.6973 29.4193 43.5699 29.253L41.4347 26.4671C41.252 26.2288 41.153 25.9369 41.153 25.6366C41.153 25.3363 41.252 25.0443 41.4347 24.806L43.5699 22.0201C43.6973 21.8538 43.8614 21.719 44.0493 21.6263C44.2372 21.5336 44.444 21.4853 44.6535 21.4853H49.5154C50.6471 21.4853 51.2875 22.783 50.5991 23.6812L49.737 24.8059C49.5544 25.0442 49.4554 25.3362 49.4554 25.6365C49.4554 25.9368 49.5544 26.2287 49.737 26.467L50.5991 27.5917C51.2875 28.4902 50.6471 29.7878 49.5154 29.7878Z" stroke="#01A3C9" stroke-width="1.7" stroke-miterlimit="10" stroke-linecap="round" stroke-linejoin="round"/>
</svg>
